<svg height="511pt" viewBox="-36 0 511 511.99996" width="511pt" xmlns="http://www.w3.org/2000/svg"><path d="m203.472656 304.460938v184.289062l-25.238281 8.414062c-3.988281 1.332032-6.144531 5.640626-4.816406 9.628907 1.332031 3.988281 5.644531 6.144531 9.628906 4.8125l30.445313-10.148438c3.105468-1.035156 5.203124-3.941406 5.203124-7.21875v-189.777343zm0 0" fill="#e18f4e"/><path d="m279.589844 304.460938v184.289062l25.238281 8.414062c3.988281 1.332032 6.144531 5.640626 4.8125 9.628907-1.328125 3.988281-5.640625 6.144531-9.625 4.8125l-30.445313-10.148438c-3.109374-1.035156-5.203124-3.941406-5.203124-7.21875v-189.777343zm0 0" fill="#c27749"/><path d="m211.085938 296.847656h-15.222657c-32.179687 0-58.355469-26.179687-58.355469-58.355468 0-32.175782 26.175782-58.355469 58.355469-58.355469h15.222657v15.222656h-15.222657c-23.785156 0-43.132812 19.351563-43.132812 43.132813 0 23.785156 19.347656 43.132812 43.132812 43.132812h15.222657zm0 0" fill="#e18f4e"/><path d="m84.226562 444.753906-40.59375-404.160156h71.039063v404.160156zm0 0" fill="#ffe2a8"/><path d="m23.335938 40.59375h60.890624v404.160156h-60.890624zm0 0" fill="#fff0d3"/><path d="m129.894531 490.417969h-30.445312l-30.445313-45.671875 60.890625 15.226562zm0 0" fill="#ffa754"/><path d="m99.449219 490.417969h-91.335938v-30.445313l91.335938-15.226562zm0 0" fill="#ffcb63"/><path d="m129.894531 459.972656h-30.445312l-30.445313-15.226562 15.222656-15.222656h30.445313zm0 0" fill="#ffcb63"/><path d="m99.449219 459.972656h-91.335938l15.222657-30.449218h60.890624zm0 0" fill="#ffe2a8"/><path d="m91.839844 60.890625-30.449219-40.59375h60.894531v40.59375zm0 0" fill="#ffcb63"/><path d="m15.722656 20.296875h76.117188v40.59375h-76.117188zm0 0" fill="#ffe2a8"/><path d="m122.285156 30.445312h-30.445312v-30.445312h30.445312c8.402344 0 15.222656 6.820312 15.222656 15.222656s-6.820312 15.222656-15.222656 15.222656zm0 0" fill="#ffa754"/><path d="m91.839844 30.445312c8.402344 0 15.222656-6.820312 15.222656-15.222656s-6.820312-15.222656-15.222656-15.222656h-76.117188c-8.402344 0-15.222656 6.820312-15.222656 15.222656s6.820312 15.222656 15.222656 15.222656zm0 0" fill="#ffcb63"/><path d="m122.285156 68.503906h-106.5625c-4.203125 0-7.609375-3.410156-7.609375-7.613281s3.40625-7.609375 7.609375-7.609375h106.5625c4.203125 0 7.609375 3.40625 7.609375 7.609375s-3.40625 7.613281-7.609375 7.613281zm0 0" fill="#ffcb63"/><path d="m271.976562 167.449219h-30.445312l-30.445312 91.339843h81.1875zm0 0" fill="#c27749"/><path d="m216.160156 167.449219c-11.210937 0-20.296875 9.089843-20.296875 20.300781v40.59375l45.667969 30.445312v-91.339843zm0 0" fill="#e18f4e"/><path d="m211.085938 289.234375h76.113281v-60.890625h-45.667969zm0 0" fill="#ffcb63"/><path d="m195.863281 228.34375h45.667969v60.890625h-45.667969zm0 0" fill="#ffe2a8"/><path d="m271.976562 258.789062-69.453124 53.046876 39.007812 99.183593h45.667969v-152.230469zm0 0" fill="#ffcb63"/><path d="m180.640625 411.019531h60.890625v-129.796875l-60.890625 68.90625zm0 0" fill="#ffe2a8"/><path d="m241.53125 258.789062-45.667969 68.503907 45.667969-.402344c18.691406-16.714844 30.445312-41.023437 30.445312-68.101563zm0 0" fill="#ffe2a8"/><path d="m195.863281 258.789062c-9.46875 10.730469-15.222656 24.816407-15.222656 40.253907v51.082031c23.402344 0 44.738281-8.785156 60.890625-23.234375v-68.101563zm0 0" fill="#fff0d3"/><path d="m282.125 167.449219h-10.148438v243.570312h30.445313v-223.269531c0-11.210938-9.085937-20.300781-20.296875-20.300781zm0 0" fill="#fff0d3"/><path d="m363.316406 182.675781h60.890625v106.558594h-60.890625zm0 0" fill="#ffcb63"/><path d="m348.09375 228.851562 45.667969 45.160157h45.667969v15.222656c0 8.402344-6.820313 15.222656-15.222657 15.222656h-76.113281zm0 0" fill="#fff0d3"/><path d="m424.207031 167.449219c8.402344 0 15.222657 6.820312 15.222657 15.226562v15.222657h-45.667969l-45.667969 65.964843v-96.414062zm0 0" fill="#fff0d3"/><path d="m363.316406 197.898438v-15.222657c0-8.410156-6.816406-15.226562-15.222656-15.226562s-15.222656 6.816406-15.222656 15.226562v106.558594c0 8.40625 6.816406 15.222656 15.222656 15.222656s15.222656-6.816406 15.222656-15.222656v-15.222656h30.445313v-76.113281zm0 0" fill="#ffe2a8"/><path d="m241.53125 45.667969v102.5l45.667969-46.683594v-10.148437c0-25.222657-20.445313-45.667969-45.667969-45.667969zm0 0" fill="#c27749"/><path d="m241.53125 45.667969c-25.222656 0-45.667969 20.445312-45.667969 45.667969v10.148437l60.890625 46.683594v-56.832031c0-25.222657-6.816406-45.667969-15.222656-45.667969zm0 0" fill="#e18f4e"/><path d="m260.515625 101.484375c-1.066406-1.597656-2.335937-3.046875-3.761719-4.324219l-15.222656 70.289063c25.222656 0 45.667969-20.445313 45.667969-45.667969v-20.296875zm0 0" fill="#60312c"/><path d="m256.753906 121.78125v-24.621094c-4.039062-3.617187-9.371094-5.824218-15.222656-5.824218-7.917969 0-14.890625 4.03125-18.988281 10.148437h-26.679688v20.296875c0 25.222656 20.445313 45.671875 45.667969 45.671875 8.40625-.003906 15.222656-20.449219 15.222656-45.671875zm0 0" fill="#85453d"/></svg>