<?xml version="1.0" encoding="iso-8859-1"?>
<!-- Generator: Adobe Illustrator 19.0.0, SVG Export Plug-In . SVG Version: 6.00 Build 0)  -->
<svg version="1.1" id="Layer_1" xmlns="http://www.w3.org/2000/svg" xmlns:xlink="http://www.w3.org/1999/xlink" x="0px" y="0px"
	 viewBox="0 0 511.999 511.999" style="enable-background:new 0 0 511.999 511.999;" xml:space="preserve">
<path style="fill:#C7C9C9;" d="M495.824,379.29H16.176v98.986c0,2.649,2.147,4.796,4.796,4.796h470.055
	c2.649,0,4.796-2.147,4.796-4.796V379.29H495.824z"/>
<rect x="16.176" y="379.293" style="opacity:0.1;enable-background:new    ;" width="479.644" height="34.006"/>
<path style="fill:#6A7379;" d="M502.495,363.221H9.505c-5.25,0-9.505,4.256-9.505,9.505v13.129c0,5.25,4.256,9.505,9.505,9.505
	h492.99c5.25,0,9.505-4.256,9.505-9.505v-13.129C512,367.477,507.744,363.221,502.495,363.221z"/>
<rect x="105.535" y="363.225" style="opacity:0.1;enable-background:new    ;" width="31.85" height="32.136"/>
<rect x="195.232" y="363.225" style="opacity:0.1;enable-background:new    ;" width="31.85" height="32.136"/>
<rect x="284.918" y="363.225" style="opacity:0.1;enable-background:new    ;" width="31.85" height="32.136"/>
<rect x="374.615" y="363.225" style="opacity:0.1;enable-background:new    ;" width="31.85" height="32.136"/>
<path style="opacity:0.15;enable-background:new    ;" d="M256,417.932L256,417.932c-15.974,0-28.921,12.949-28.921,28.921v36.218
	h57.844v-36.218C284.921,430.881,271.972,417.932,256,417.932z"/>
<path style="opacity:0.15;enable-background:new    ;" d="M166.306,417.932L166.306,417.932c-15.974,0-28.921,12.949-28.921,28.921
	v36.218h57.844v-36.218C195.228,430.881,182.28,417.932,166.306,417.932z"/>
<path style="opacity:0.15;enable-background:new    ;" d="M76.613,417.932L76.613,417.932c-15.972,0-28.921,12.949-28.921,28.921
	v36.218h57.842v-36.218C105.535,430.881,92.586,417.932,76.613,417.932z"/>
<path style="opacity:0.15;enable-background:new    ;" d="M345.694,417.932L345.694,417.932c15.974,0,28.921,12.949,28.921,28.921
	v36.218h-57.844v-36.218C316.772,430.881,329.72,417.932,345.694,417.932z"/>
<path style="opacity:0.15;enable-background:new    ;" d="M435.387,417.932L435.387,417.932c15.972,0,28.921,12.949,28.921,28.921
	v36.218h-57.842v-36.218C406.465,430.881,419.414,417.932,435.387,417.932z"/>
<rect x="47.688" y="468.573" style="opacity:0.1;enable-background:new    ;" width="57.844" height="14.496"/>
<rect x="137.385" y="468.573" style="opacity:0.1;enable-background:new    ;" width="57.844" height="14.496"/>
<rect x="227.082" y="468.573" style="opacity:0.1;enable-background:new    ;" width="57.844" height="14.496"/>
<rect x="316.768" y="468.573" style="opacity:0.1;enable-background:new    ;" width="57.844" height="14.496"/>
<rect x="406.465" y="468.573" style="opacity:0.1;enable-background:new    ;" width="57.844" height="14.496"/>
<rect x="16.176" y="259.437" style="fill:#C7C9C9;" width="479.644" height="103.788"/>
<rect x="16.176" y="259.437" style="opacity:0.1;enable-background:new    ;" width="479.644" height="34.006"/>
<path style="fill:#6A7379;" d="M502.495,243.369H9.505c-5.25,0-9.505,4.256-9.505,9.505v13.129c0,5.25,4.256,9.505,9.505,9.505
	h492.99c5.25,0,9.505-4.256,9.505-9.505v-13.129C512,247.624,507.744,243.369,502.495,243.369z"/>
<rect x="105.535" y="243.369" style="opacity:0.1;enable-background:new    ;" width="31.85" height="32.136"/>
<rect x="195.232" y="243.369" style="opacity:0.1;enable-background:new    ;" width="31.85" height="32.136"/>
<rect x="284.918" y="243.369" style="opacity:0.1;enable-background:new    ;" width="31.85" height="32.136"/>
<rect x="374.615" y="243.369" style="opacity:0.1;enable-background:new    ;" width="31.85" height="32.136"/>
<path style="opacity:0.15;enable-background:new    ;" d="M256,298.08L256,298.08c-15.974,0-28.921,12.949-28.921,28.921v36.218
	h57.844v-36.218C284.921,311.029,271.972,298.08,256,298.08z"/>
<path style="opacity:0.15;enable-background:new    ;" d="M166.306,298.08L166.306,298.08c-15.974,0-28.921,12.949-28.921,28.921
	v36.218h57.844v-36.218C195.228,311.029,182.28,298.08,166.306,298.08z"/>
<path style="opacity:0.15;enable-background:new    ;" d="M76.613,298.08L76.613,298.08c-15.972,0-28.921,12.949-28.921,28.921
	v36.218h57.842v-36.218C105.535,311.029,92.586,298.08,76.613,298.08z"/>
<path style="opacity:0.15;enable-background:new    ;" d="M345.694,298.08L345.694,298.08c15.974,0,28.921,12.949,28.921,28.921
	v36.218h-57.844v-36.218C316.772,311.029,329.72,298.08,345.694,298.08z"/>
<path style="opacity:0.15;enable-background:new    ;" d="M435.387,298.08L435.387,298.08c15.972,0,28.921,12.949,28.921,28.921
	v36.218h-57.842v-36.218C406.465,311.029,419.414,298.08,435.387,298.08z"/>
<rect x="47.688" y="348.728" style="opacity:0.1;enable-background:new    ;" width="57.844" height="14.496"/>
<rect x="137.385" y="348.728" style="opacity:0.1;enable-background:new    ;" width="57.844" height="14.496"/>
<rect x="227.082" y="348.728" style="opacity:0.1;enable-background:new    ;" width="57.844" height="14.496"/>
<rect x="316.768" y="348.728" style="opacity:0.1;enable-background:new    ;" width="57.844" height="14.496"/>
<rect x="406.465" y="348.728" style="opacity:0.1;enable-background:new    ;" width="57.844" height="14.496"/>
<rect x="16.176" y="139.581" style="fill:#C7C9C9;" width="479.644" height="103.788"/>
<rect x="16.176" y="139.581" style="opacity:0.1;enable-background:new    ;" width="479.644" height="34.006"/>
<path style="fill:#6A7379;" d="M502.495,123.517H9.505c-5.25,0-9.505,4.256-9.505,9.505v13.128c0,5.25,4.256,9.505,9.505,9.505
	h492.99c5.25,0,9.505-4.256,9.505-9.505v-13.128C512,127.773,507.744,123.517,502.495,123.517z"/>
<rect x="105.535" y="123.513" style="opacity:0.1;enable-background:new    ;" width="31.85" height="32.136"/>
<rect x="195.232" y="123.513" style="opacity:0.1;enable-background:new    ;" width="31.85" height="32.136"/>
<rect x="284.918" y="123.513" style="opacity:0.1;enable-background:new    ;" width="31.85" height="32.136"/>
<rect x="374.615" y="123.513" style="opacity:0.1;enable-background:new    ;" width="31.85" height="32.136"/>
<path style="opacity:0.15;enable-background:new    ;" d="M256,178.229L256,178.229c-15.974,0-28.921,12.949-28.921,28.921v36.218
	h57.844V207.15C284.921,191.177,271.972,178.229,256,178.229z"/>
<path style="opacity:0.15;enable-background:new    ;" d="M166.306,178.229L166.306,178.229c-15.974,0-28.921,12.949-28.921,28.921
	v36.218h57.844V207.15C195.228,191.177,182.28,178.229,166.306,178.229z"/>
<path style="opacity:0.15;enable-background:new    ;" d="M76.613,178.229L76.613,178.229c-15.972,0-28.921,12.949-28.921,28.921
	v36.218h57.842V207.15C105.535,191.177,92.586,178.229,76.613,178.229z"/>
<path style="opacity:0.15;enable-background:new    ;" d="M345.694,178.229L345.694,178.229c15.974,0,28.921,12.949,28.921,28.921
	v36.218h-57.844V207.15C316.772,191.177,329.72,178.229,345.694,178.229z"/>
<path style="opacity:0.15;enable-background:new    ;" d="M435.387,178.229L435.387,178.229c15.972,0,28.921,12.949,28.921,28.921
	v36.218h-57.842V207.15C406.465,191.177,419.414,178.229,435.387,178.229z"/>
<rect x="47.688" y="228.872" style="opacity:0.1;enable-background:new    ;" width="57.844" height="14.496"/>
<rect x="137.385" y="228.872" style="opacity:0.1;enable-background:new    ;" width="57.844" height="14.496"/>
<rect x="227.082" y="228.872" style="opacity:0.1;enable-background:new    ;" width="57.844" height="14.496"/>
<rect x="316.768" y="228.872" style="opacity:0.1;enable-background:new    ;" width="57.844" height="14.496"/>
<rect x="406.465" y="228.872" style="opacity:0.1;enable-background:new    ;" width="57.844" height="14.496"/>
<path style="fill:#C7C9C9;" d="M277.331,44.995H16.176v78.522h320.732C319.992,123.517,295.219,84.84,277.331,44.995z"/>
<g>
	<path style="fill:#93999D;" d="M76.613,110.9c-4.55,0-8.237-3.688-8.237-8.237V80.697c0-4.549,3.687-8.237,8.237-8.237
		c4.55,0,8.237,3.688,8.237,8.237v21.966C84.85,107.212,81.162,110.9,76.613,110.9z"/>
	<path style="fill:#93999D;" d="M166.306,110.9c-4.55,0-8.237-3.688-8.237-8.237V80.697c0-4.549,3.687-8.237,8.237-8.237
		s8.237,3.688,8.237,8.237v21.966C174.543,107.212,170.856,110.9,166.306,110.9z"/>
	<path style="fill:#93999D;" d="M256,110.9c-4.55,0-8.237-3.688-8.237-8.237V80.697c0-4.549,3.687-8.237,8.237-8.237
		s8.237,3.688,8.237,8.237v21.966C264.237,107.212,260.549,110.9,256,110.9z"/>
</g>
<path style="opacity:0.1;enable-background:new    ;" d="M277.331,44.995H16.176v34.006h278.413
	C288.49,68.41,282.61,56.755,277.331,44.995z"/>
<path style="fill:#6A7379;" d="M265.407,28.926H9.506C4.256,28.926,0,33.182,0,38.431V51.56c0,5.249,4.256,9.505,9.505,9.505H284.96
	c-4.504-8.977-8.747-18.289-12.547-27.471C271.242,30.761,268.471,28.926,265.407,28.926z"/>
<g>
</g>
<g>
</g>
<g>
</g>
<g>
</g>
<g>
</g>
<g>
</g>
<g>
</g>
<g>
</g>
<g>
</g>
<g>
</g>
<g>
</g>
<g>
</g>
<g>
</g>
<g>
</g>
<g>
</g>
</svg>
