<?xml version="1.0" encoding="iso-8859-1"?>
<!-- Generator: Adobe Illustrator 19.0.0, SVG Export Plug-In . SVG Version: 6.00 Build 0)  -->
<svg version="1.1" id="Capa_1" xmlns="http://www.w3.org/2000/svg" xmlns:xlink="http://www.w3.org/1999/xlink" x="0px" y="0px"
	 viewBox="0 0 512.002 512.002" style="enable-background:new 0 0 512.002 512.002;" xml:space="preserve">
<polygon style="fill:#FFDB69;" points="378.293,101.926 337.41,21.491 256.001,21.491 235.985,484.234 378.293,464.218 "/>
<polygon style="fill:#FFEBAE;" points="174.592,21.491 133.709,101.926 133.709,464.218 256.001,484.234 256.001,21.491 "/>
<g>
	<path style="fill:#FFC813;" d="M388.925,103.03c28.451,0,51.515-23.064,51.515-51.515C440.44,23.064,417.376,0,388.925,0H256.001
		l-20.016,25.495l20.016,26.02h81.409C337.41,79.966,360.474,103.03,388.925,103.03z"/>
	<polygon style="fill:#FFC813;" points="420.344,512 420.344,464.218 256.001,464.218 235.985,488.237 256.001,512 	"/>
</g>
<g>
	<rect x="91.661" y="464.22" style="fill:#FFDB69;" width="164.34" height="47.782"/>
	<path style="fill:#FFDB69;" d="M123.077,0C94.626,0,71.562,23.064,71.562,51.515s23.064,51.515,51.515,51.515
		s51.515-23.064,51.515-51.515h81.409V0H123.077z"/>
	<rect x="157.621" y="124.37" style="fill:#FFDB69;" width="30" height="277.62"/>
	<rect x="206.531" y="103.11" style="fill:#FFDB69;" width="30" height="320.15"/>
</g>
<g>
	<rect x="275.471" y="103.11" style="fill:#FFC813;" width="30" height="320.15"/>
	<rect x="324.381" y="124.37" style="fill:#FFC813;" width="30" height="277.62"/>
</g>
<path style="fill:#FFEBAE;" d="M123.077,69.051c-9.67,0-17.536-7.866-17.536-17.536s7.866-17.536,17.536-17.536
	c9.669,0,17.536,7.866,17.536,17.536S132.747,69.051,123.077,69.051z"/>
<path style="fill:#FFDB69;" d="M388.925,69.051c-9.669,0-17.536-7.866-17.536-17.536s7.867-17.536,17.536-17.536
	s17.536,7.866,17.536,17.536S398.594,69.051,388.925,69.051z"/>
<g>
</g>
<g>
</g>
<g>
</g>
<g>
</g>
<g>
</g>
<g>
</g>
<g>
</g>
<g>
</g>
<g>
</g>
<g>
</g>
<g>
</g>
<g>
</g>
<g>
</g>
<g>
</g>
<g>
</g>
</svg>
