<?xml version="1.0" encoding="iso-8859-1"?>
<!-- Generator: Adobe Illustrator 19.0.0, SVG Export Plug-In . SVG Version: 6.00 Build 0)  -->
<svg version="1.1" id="Capa_1" xmlns="http://www.w3.org/2000/svg" xmlns:xlink="http://www.w3.org/1999/xlink" x="0px" y="0px"
	 viewBox="0 0 512.001 512.001" style="enable-background:new 0 0 512.001 512.001;" xml:space="preserve">
<path style="fill:#FFB578;" d="M298.485,237.47h-0.01c-0.581-0.031-1.163-0.052-1.754-0.052c-17.202,0-31.144,13.942-31.144,31.144
	l37.373,3.114L298.485,237.47z"/>
<path style="opacity:0.8;fill:#CE795F;enable-background:new    ;" d="M298.873,240.452c-10.484,5.013-17.726,15.714-17.726,28.112
	l21.63,1.802L298.873,240.452z"/>
<path style="fill:#FFB578;" d="M336.066,217.746c-2.616-0.716-5.357-1.09-8.201-1.09c-13.579,0-25.123,8.689-29.379,20.815
	c-1.142,3.229-1.765,6.706-1.765,10.329v20.763l31.134,9.977l0.01-0.01l15.579-57.694
	C341.16,219.508,338.671,218.463,336.066,217.746z"/>
<path style="opacity:0.8;fill:#CE795F;enable-background:new    ;" d="M343.443,221.605c-0.016-0.009-0.032-0.017-0.047-0.025
	c-13.561,0.018-25.088,8.7-29.34,20.813c-1.142,3.229-1.765,6.706-1.765,10.329v20.763l15.777,5.056L343.443,221.605z"/>
<path style="fill:#FFB578;" d="M377.332,222.616c-5.139-3.748-11.471-5.959-18.323-5.959c-5.668,0-10.994,1.516-15.572,4.184
	c-9.312,5.378-15.572,15.437-15.572,26.96v29.691v1.038l-0.01,0.01h-74.995v83.456h114.455v-93.433l21.188-30.781
	C386.415,231.648,382.47,226.363,377.332,222.616z"/>
<path style="opacity:0.8;fill:#CE795F;enable-background:new    ;" d="M377.332,222.616c-5.139-3.748-11.471-5.959-18.323-5.959
	c-5.668,0-10.994,1.516-15.572,4.184c-9.312,5.378-15.572,15.437-15.572,26.96v29.691v1.038l-0.01,0.01h-74.995v83.456h114.455
	v-93.433l21.188-30.781C386.415,231.648,382.47,226.363,377.332,222.616z"/>
<g>
	<path style="fill:#FFB578;" d="M348.627,288.9v-41.1c0-11.523,6.26-21.583,15.572-26.96c1.637-0.954,3.373-1.753,5.182-2.396
		c1.426,0.503,2.807,1.106,4.131,1.799c-4.331-2.285-9.263-3.587-14.504-3.587c-5.668,0-10.994,1.516-15.572,4.184
		c-9.312,5.378-15.572,15.437-15.572,26.96v29.691v1.038l-0.01,31.155C339.327,309.678,348.627,300.375,348.627,288.9z"/>
	<path style="fill:#FFB578;" d="M394.139,237.429c-1.921-0.052-3.81,0.073-5.637,0.353c-14.939,2.294-26.379,15.198-26.379,30.781
		v31.144c0,15.136-5.917,28.923-15.572,39.148c-10.423,11.046-25.185,17.949-41.526,17.949h-1.786
		c-14.264,0-29.141-4.402-40.789-12.281c12.063-8.824,26.691-13.672,41.827-13.672h0.156c16.769,0,30.984-13.018,31.706-29.772
		c0.375-8.707-2.839-16.677-8.286-22.54c-0.26-0.291-0.529-0.571-0.81-0.851c-5.637-5.637-13.423-9.125-22.019-9.125h-8.305h-31.144
		h-33.22c-0.924,0.021-1.848,0.042-2.761,0.083c-56.714,2.408-101.052,49.955-101.052,106.721c0,5.689-1.132,11.264-3.27,16.423
		c-2.139,5.16-5.284,9.904-9.302,13.921l-22.853,22.853c-7.349,7.349-7.354,19.208-0.108,26.658
		c0.754,0.776,1.515,1.547,2.281,2.313c24.505,24.505,53.706,42.609,85.574,53.476c6.779,2.312,14.287,0.485,19.351-4.579l0,0
		c13.216-13.216,29.556-22.87,47.516-27.988c54.409-15.499,103.243-44.692,144.135-85.107c10.496-11.118,18.624-23.95,24.137-37.83
		c5.523-13.87,8.409-28.777,8.409-44.059v-11.741v-30.501C424.411,252.243,411.102,237.897,394.139,237.429z"/>
</g>
<g>
	<path style="fill:#F7A16E;" d="M321.837,273.501c-7.014,6.515-13.439,11.25-15.841,19.817c-1.028,3.664-4.363,6.177-8.158,6.452
		c-9.797,0.71-19.672,2.837-28.671,6.143c-12.142,4.459-17.121,18.535-11.344,29.681l4.629,8.929
		c20.812-15.223,43.02-13.672,41.982-13.672C336.165,330.852,347.847,290.236,321.837,273.501z"/>
	<path style="fill:#F7A16E;" d="M409.31,241.982c-9.86,5.435-16.044,15.713-16.044,27.225v42.241c0,11.26-2.089,22.213-6.209,32.563
		c-4.053,10.206-9.937,19.482-17.488,27.573c-37.69,37.127-81.551,63.001-130.373,76.907c-22.951,6.54-44.046,18.962-61.003,35.919
		c-5.971,5.971-9.169,13.896-9.092,22.211c3.877,1.575,7.801,3.039,11.764,4.39c6.779,2.312,14.286,0.485,19.351-4.579
		c13.216-13.216,29.556-22.87,47.516-27.988c54.409-15.499,103.243-44.692,144.135-85.107c10.496-11.118,18.624-23.95,24.137-37.83
		c5.523-13.87,8.409-28.777,8.409-44.059v-11.741v-30.501C424.411,257.81,418.398,247.602,409.31,241.982z"/>
</g>
<path style="fill:#FF5368;" d="M196.046,20.592l74.958-20.085c7.875-2.111,15.971,2.563,18.081,10.44l20.085,74.958
	c2.111,7.875-2.563,15.971-10.44,18.081l-74.958,20.085c-7.875,2.111-15.971-2.563-18.081-10.44l-20.085-74.958
	C183.497,30.798,188.171,22.702,196.046,20.592z"/>
<path style="fill:#C5324F;" d="M309.171,85.904l-20.085-74.958c-2.111-7.875-10.205-12.549-18.081-10.44l-15.823,4.24l19.667,73.395
	l-73.395,19.667l4.24,15.822c2.111,7.875,10.205,12.549,18.081,10.44l74.959-20.085C306.607,101.875,311.281,93.779,309.171,85.904z
	"/>
<g>
	<ellipse style="fill:#FFF9EB;" cx="221.948" cy="47.611" rx="7.786" ry="7.786"/>
	<ellipse style="fill:#FFF9EB;" cx="262.061" cy="36.865" rx="7.786" ry="7.786"/>
	<ellipse style="fill:#FFF9EB;" cx="227.326" cy="67.669" rx="7.786" ry="7.786"/>
	<ellipse style="fill:#FFF9EB;" cx="267.438" cy="56.923" rx="7.786" ry="7.786"/>
	<ellipse style="fill:#FFF9EB;" cx="232.703" cy="87.726" rx="7.786" ry="7.786"/>
	<ellipse style="fill:#FFF9EB;" cx="272.814" cy="76.967" rx="7.786" ry="7.786"/>
</g>
<path style="fill:#FF5368;" d="M246.822,148.291l-74.958-20.085c-7.875-2.111-15.971,2.563-18.081,10.44l-20.085,74.958
	c-2.111,7.875,2.563,15.971,10.44,18.081l74.958,20.085c7.875,2.111,15.971-2.563,18.081-10.44l20.085-74.958
	C259.371,158.496,254.697,150.402,246.822,148.291z"/>
<path style="fill:#C5324F;" d="M246.822,148.291L231,144.051l-19.667,73.395l-73.395-19.665l-4.24,15.822
	c-2.111,7.875,2.563,15.971,10.439,18.081l74.959,20.085c7.875,2.111,15.971-2.563,18.081-10.438l20.085-74.958
	C259.371,158.496,254.697,150.402,246.822,148.291z"/>
<g>
	<ellipse style="fill:#FFF9EB;" cx="180.789" cy="164.557" rx="7.786" ry="7.786"/>
	<ellipse style="fill:#FFF9EB;" cx="220.905" cy="175.311" rx="7.786" ry="7.786"/>
	<ellipse style="fill:#FFF9EB;" cx="170.036" cy="204.667" rx="7.786" ry="7.786"/>
	<ellipse style="fill:#FFF9EB;" cx="210.146" cy="215.419" rx="7.786" ry="7.786"/>
</g>
<g>
</g>
<g>
</g>
<g>
</g>
<g>
</g>
<g>
</g>
<g>
</g>
<g>
</g>
<g>
</g>
<g>
</g>
<g>
</g>
<g>
</g>
<g>
</g>
<g>
</g>
<g>
</g>
<g>
</g>
</svg>
