<svg height="511pt" viewBox="0 0 511.99918 511" width="511pt" xmlns="http://www.w3.org/2000/svg"><path d="m510.449219 504.296875c-2.699219 4.800781-7.800781 8.101563-13.496094 8.101563h-165.96875l-29.992187-29.996094h-89.984376l-29.992187 29.996094h-165.96875c-5.699219 0-10.796875-3.300782-13.496094-8.101563-2.398437-5.097656-2.097656-11.097656 1.5-15.597656l48.992188-66.285157 68.984375-14.996093-47.089844-15 21.597656-29.992188 55.488282-14.996093-33.59375-14.996094 21.894531-29.996094 71.683593-14.996094-49.789062-14.996094 82.78125-113.679687c2.703125-3.898437 7.203125-5.699219 12-5.699219s9.296875 1.800782 12 5.699219l61.183594 83.683594-28.191406 14.996093 49.789062 15 21.894531 29.992188-41.691406 14.996094 63.585937 15 21.894532 29.992187-25.492188 14.996094 47.089844 14.996094 21.894531 29.996093-38.992187 14.996094 60.890625 14.996094 27.09375 36.292969c3.597656 4.5 3.898437 10.5 1.5 15.597656zm0 0" fill="#ffd400"/><path d="m510.449219 504.296875c-2.699219 4.800781-7.800781 8.101563-13.496094 8.101563h-165.96875l-29.992187-29.996094h-44.992188v-329.335938c4.796875 0 9.296875 1.800782 12 5.699219l61.183594 83.683594-28.191406 14.996093 49.789062 15 21.894531 29.992188-41.691406 14.996094 63.585937 15 21.894532 29.992187-25.492188 14.996094 47.089844 14.996094 21.894531 29.996093-38.992187 14.996094 60.890625 14.996094 27.09375 36.292969c3.597656 4.5 3.898437 10.5 1.5 15.597656zm0 0" fill="#fdbf00"/><path d="m166.019531 332.433594h-48.535156l-21.8125 29.992187h70.347656c8.289063 0 14.996094-6.707031 14.996094-14.996093 0-8.289063-6.707031-14.996094-14.996094-14.996094zm0 0" fill="#fdbf00"/><path d="m511.949219 92.480469c0 49.789062-41.195313 89.984375-90.984375 89.984375-49.789063 0-89.980469-40.195313-89.980469-89.984375 0-49.789063 40.191406-91.980469 89.980469-91.980469 49.789062 0 90.984375 42.191406 90.984375 91.980469zm0 0" fill="#ffe470"/><path d="m181.015625 31.492188h-32.75c-6.195313-17.433594-22.675781-30.992188-42.234375-30.992188-19.5625 0-36.042969 13.558594-42.238281 30.992188h-2.753907c-16.566406 0-29.992187 14.429687-29.992187 30.996093 0 16.566407 13.425781 29.992188 29.992187 29.992188h119.976563c16.566406 0 29.992187-13.425781 29.992187-29.992188 0-16.566406-13.425781-30.996093-29.992187-30.996093zm0 0" fill="#ede9e8"/><path d="m511.949219 92.480469c0 49.789062-41.195313 89.984375-90.984375 89.984375v-181.964844c49.789062 0 90.984375 42.191406 90.984375 91.980469zm0 0" fill="#fdbf00"/><path d="m511.949219 182.464844c0 16.496094-14.496094 29.992187-30.996094 29.992187h-119.972656c-16.5 0-29.996094-13.496093-29.996094-29.992187 0-16.5 13.496094-29.996094 29.996094-29.996094h32.691406c4.5-12.597656 14.699219-22.796875 27.292969-27.296875 4.5-1.796875 9.601562-2.695313 15-2.695313 19.496094 0 35.992187 12.59375 42.289062 29.992188h2.699219c16.496094 0 30.996094 13.496094 30.996094 29.996094zm0 0" fill="#ede9e8"/><path d="m511.949219 182.464844c0 16.496094-14.496094 29.992187-30.996094 29.992187h-59.988281v-87.285156c4.5-1.796875 9.601562-2.695313 15-2.695313 19.496094 0 35.992187 12.59375 42.289062 29.992188h2.699219c16.496094 0 30.996094 13.496094 30.996094 29.996094zm0 0" fill="#dfd7d5"/><path d="m241.003906 287.441406c0-8.289062-6.707031-14.996094-15-14.996094h-64.890625l-21.8125 29.992188h86.703125c8.292969 0 15-6.707031 15-14.996094zm0 0" fill="#fdbf00"/><path d="m151.019531 407.417969c0-8.289063-6.707031-14.996094-14.996093-14.996094h-62.164063l-21.816406 29.992187h83.980469c8.289062 0 14.996093-6.707031 14.996093-14.996093zm0 0" fill="#fdbf00"/><g fill="#ff9f00"><path d="m300.992188 317.4375c0 8.289062 6.707031 14.996094 14.996093 14.996094h78.527344l-21.816406-29.996094h-56.710938c-8.289062 0-14.996093 6.710938-14.996093 15zm0 0"/><path d="m390.972656 437.410156c0 8.289063 6.707032 15 14.996094 15h75.800781l-21.816406-29.996094h-53.984375c-8.289062 0-14.996094 6.707032-14.996094 14.996094zm0 0"/><path d="m360.980469 377.421875c0 8.292969 6.707031 15 14.996093 15h62.164063l-21.8125-29.996094h-40.351563c-8.289062 0-14.996093 6.707031-14.996093 14.996094zm0 0"/><path d="m270.996094 257.449219c0 8.289062 6.707031 14.996093 14.996094 14.996093h64.894531l-21.8125-29.996093h-43.082031c-8.289063 0-14.996094 6.710937-14.996094 15zm0 0"/></g><path d="m330.984375 377.421875v134.976563h-29.992187l-15-29.996094-14.996094 29.996094h-29.992188l-15-29.996094-14.996094 29.996094h-29.992187v-134.976563c0-8.398437 6.597656-14.996094 14.996094-14.996094h119.976562c8.398438 0 14.996094 6.597657 14.996094 14.996094zm0 0" fill="#fdbf00"/><path d="m330.984375 377.421875v134.976563h-29.992187l-15-29.996094-14.996094 29.996094h-14.996094v-149.972657h59.988281c8.398438 0 14.996094 6.597657 14.996094 14.996094zm0 0" fill="#ff9f00"/><path d="m211.007812 392.421875h29.996094v119.976563h-29.996094zm0 0" fill="#ff7816"/><path d="m270.996094 392.421875h29.996094v119.976563h-29.996094zm0 0" fill="#ff4b00"/></svg>