<?xml version="1.0" encoding="iso-8859-1"?>
<!-- Generator: Adobe Illustrator 19.0.0, SVG Export Plug-In . SVG Version: 6.00 Build 0)  -->
<svg version="1.1" id="Layer_1" xmlns="http://www.w3.org/2000/svg" xmlns:xlink="http://www.w3.org/1999/xlink" x="0px" y="0px"
	 viewBox="0 0 512 512" style="enable-background:new 0 0 512 512;" xml:space="preserve">
<rect x="102.763" y="105.619" transform="matrix(-0.4842 -0.875 0.875 -0.4842 142.106 341.9651)" style="fill:#272F37;" width="138.177" height="46.952"/>
<path style="opacity:0.2;enable-background:new    ;" d="M158.941,57.276l-41.079,22.734l29.731,53.725
	c13.219-8.473,27.351-15.445,42.156-20.788L158.941,57.276z"/>
<path style="fill:#C39774;" d="M427.428,255.818c-19.269-74.149-86.451-128.977-166.517-129.456
	c-95.801-0.573-174.187,79.057-174.187,174.861v81.024c0,35.629-14.463,69.734-40.077,94.501l0,0
	c-6.04,5.841-3.679,16.012,4.316,18.595l19.362,6.255c71.713,23.169,150.324,7.048,207.131-42.475l0,0l-49.298-102.118
	l53.522-57.372C281.681,299.634,371.438,278.957,427.428,255.818z"/>
<path style="opacity:0.08;enable-background:new    ;" d="M68.404,469.457c25.614-24.767,40.077-58.871,40.077-94.501v-81.024
	c0-72.619,45.044-135.935,108.567-162.082c-74.749,19.511-130.324,88.707-130.324,169.374v81.024
	c0,35.629-14.463,69.733-40.077,94.501l0,0c-6.04,5.841-3.679,16.012,4.316,18.594l19.362,6.255
	c48.085,15.535,99.262,13.38,144.896-4.638c-39.789,10.977-82.567,10.455-123.139-2.653l-19.362-6.255
	C64.725,485.468,62.364,475.296,68.404,469.457L68.404,469.457z"/>
<g>
	<path style="opacity:0.2;fill:#FFFFFF;enable-background:new    ;" d="M260.91,126.362c-0.146-0.001-0.29,0.003-0.435,0.003
		c-0.512,3.381-0.779,6.843-0.779,10.368c0,37.959,30.771,68.73,68.73,68.73c22.42,0,42.328-10.74,54.873-27.351
		C352.121,146.403,308.825,126.648,260.91,126.362z"/>
	<circle style="opacity:0.2;fill:#FFFFFF;enable-background:new    ;" cx="218.099" cy="204.624" r="24.992"/>
</g>
<path style="opacity:0.08;enable-background:new    ;" d="M427.428,255.818c-6.863-26.408-19.807-50.362-37.243-70.288
	c-0.852,0.764-1.67,1.583-2.409,2.51l-53.025,66.458c-7.972,9.991-20.554,15.133-33.242,13.585l-112.681-13.75
	c-13.103-1.599-24.792,8.3-25.373,21.487l-4.35,98.594c-0.62,14.06,4.711,27.733,14.687,37.662l70.9,70.567
	c11.517-6.732,22.5-14.571,32.763-23.519l0,0l-49.298-102.118l53.522-57.372C281.681,299.634,371.438,278.957,427.428,255.818z"/>
<path style="fill:#FDD05F;" d="M492.383,274.078l-72.076,55.977c-19.1,14.834-43.84,20.335-67.427,14.995l-49.788-11.274
	c-9.981-2.26-19.908,3.985-22.192,13.961l-6.179,26.987c-1.585,6.924-0.151,14.197,3.944,20.001l66.04,93.584
	c6.312,8.945-0.084,21.288-11.032,21.288H304.96c-7.979,0-15.632-3.16-21.287-8.788l-89.151-88.733
	c-9.976-9.929-15.307-23.6-14.687-37.662l4.35-98.594c0.582-13.187,12.271-23.085,25.373-21.487l112.681,13.751
	c12.688,1.548,25.27-3.594,33.242-13.585l53.025-66.458c7.605-9.531,21.762-10.452,30.537-1.986l55.205,53.257
	C504.342,249.05,503.461,265.474,492.383,274.078z"/>
<path style="opacity:0.3;fill:#FFFFFF;enable-background:new    ;" d="M439.042,186.053c-8.776-8.466-22.932-7.545-30.537,1.986
	l-3.847,4.822c2.511,26.617,24.913,47.444,52.186,47.444c10.817,0,20.868-3.278,29.217-8.892L439.042,186.053z"/>
<path style="fill:#DE2A4E;" d="M70.664,179.899c41.407-65.007,112.074-103.818,189.031-103.818V11.079
	c0-6.288-5.232-11.311-11.514-11.07c-47.427,1.822-93.936,14.868-135.183,38.007C73.167,60.359,38.684,91.784,12.682,129.33
	c-3.577,5.165-2.14,12.272,3.159,15.648L70.664,179.899z"/>
<path style="opacity:0.15;enable-background:new    ;" d="M104.447,133.886L47.769,87.429c-3.891,3.877-7.675,7.861-11.35,11.947
	l57.61,47.221c0.494,0.405,1.029,0.718,1.578,0.989c3.539-3.821,7.186-7.516,10.958-11.059
	C106.064,135.539,105.359,134.634,104.447,133.886z M117.582,35.502c-1.534,0.825-3.063,1.66-4.584,2.512
	c-3.261,1.829-6.472,3.742-9.659,5.691l38.127,64.34c0.248,0.419,0.537,0.794,0.843,1.152c4.577-2.819,9.249-5.473,14.017-7.951
	c-0.181-0.54-0.419-1.069-0.721-1.579L117.582,35.502z M221.485,79.329l-14.19-74.916c-0.001-0.004-0.002-0.009-0.003-0.014
	c-5.398,0.955-10.769,2.051-16.102,3.298l14.148,74.691c0.021,0.108,0.05,0.211,0.076,0.319c5.299-1.314,10.66-2.432,16.075-3.36
	C221.487,79.34,221.486,79.334,221.485,79.329z"/>
<path style="fill:#272F37;" d="M85.326,179.047c38.128-54.935,99.059-88.402,165.775-91.056c4.809-0.192,8.595-4.171,8.595-8.984
	V64.345c-80.99,0-155.357,40.841-198.931,109.249l12.365,7.877C77.19,184.056,82.583,183.001,85.326,179.047z"/>
<g>
</g>
<g>
</g>
<g>
</g>
<g>
</g>
<g>
</g>
<g>
</g>
<g>
</g>
<g>
</g>
<g>
</g>
<g>
</g>
<g>
</g>
<g>
</g>
<g>
</g>
<g>
</g>
<g>
</g>
</svg>
