<?xml version="1.0" encoding="iso-8859-1"?>
<!-- Generator: Adobe Illustrator 19.0.0, SVG Export Plug-In . SVG Version: 6.00 Build 0)  -->
<svg version="1.1" id="Capa_1" xmlns="http://www.w3.org/2000/svg" xmlns:xlink="http://www.w3.org/1999/xlink" x="0px" y="0px"
	 viewBox="0 0 512.001 512.001" style="enable-background:new 0 0 512.001 512.001;" xml:space="preserve">
<g>
	<g>
		<rect x="379.587" y="17.655" style="fill:#95A5A5;" width="88.276" height="52.966"/>
		<rect x="379.587" y="17.655" style="fill:#BDC3C7;" width="88.276" height="17.655"/>
		<circle style="fill:#F29C1F;" cx="476.69" cy="44.138" r="35.31"/>
		<rect x="44.138" y="17.655" style="fill:#95A5A5;" width="88.276" height="52.966"/>
		<rect x="44.138" y="17.655" style="fill:#BDC3C7;" width="88.276" height="17.655"/>
		<path style="fill:#E4C05C;" d="M450.207,476.69c0.475,10.521-1.505,21.008-5.782,30.632c-1.511,2.91-4.533,4.72-7.812,4.679
			H75.388c-3.279,0.042-6.301-1.768-7.812-4.679c-4.277-9.624-6.257-20.111-5.782-30.632c-0.475-10.521,1.505-21.008,5.782-30.632
			c1.511-2.91,4.533-4.721,7.812-4.679h361.225c3.279-0.042,6.301,1.768,7.812,4.679
			C448.703,455.682,450.682,466.169,450.207,476.69z"/>
	</g>
	<g>
		<path style="fill:none;stroke:#000000;stroke-width:2;stroke-linecap:round;stroke-linejoin:round;" d="M150.069,123.586
			c0-0.023-0.009-0.046-0.026-0.062c-0.017-0.017-0.039-0.026-0.062-0.026"/>
		<path style="fill:none;stroke:#000000;stroke-width:2;stroke-linecap:round;stroke-linejoin:round;" d="M362.02,370.67
			c-0.049,0-0.088,0.04-0.088,0.088"/>
	</g>
	<g>
		<path style="fill:#B19046;" d="M406.069,377.441l0,63.938H105.931l0-88.276c0-4.855,3.92-8.798,8.775-8.828
			c2.35,0.014,4.609-0.91,6.276-2.567c1.667-1.657,2.604-3.91,2.604-6.261V312.62c0-2.341-0.931-4.586-2.586-6.241l-12.482-12.482
			c-1.656-1.655-2.586-3.9-2.586-6.241V130.269c0.031-4.141,2.896-7.722,6.93-8.66c4.345-1.041,8.778-1.671,13.241-1.88
			c3.74-0.135,6.989-2.614,8.106-6.187c1.117-3.572-0.14-7.461-3.136-9.703c-6.591-4.823-13.491-9.208-20.657-13.127
			c-2.797-1.563-4.517-4.529-4.484-7.733V17.655C105.96,7.917,113.848,0.029,123.587,0h264.828
			c9.739,0.029,17.626,7.917,17.655,17.655v91.648c-0.002,3.343-1.891,6.398-4.882,7.892l-7.892,3.955
			c-2.99,1.494-4.88,4.549-4.882,7.892v29.855c0,4.875,3.952,8.828,8.828,8.828s8.828,3.952,8.828,8.828v153.6
			c0.016,3.202-1.717,6.157-4.52,7.706c-7.159,3.921-14.056,8.303-20.648,13.118c-2.998,2.243-4.254,6.134-3.134,9.707
			c1.12,3.573,4.371,6.051,8.113,6.183c4.462,0.217,8.895,0.847,13.241,1.88C403.175,369.68,406.053,373.281,406.069,377.441z"/>
		<g>
			<path style="fill:#2C2F38;" d="M272.261,114.759c-3.902-0.001-7.341-2.564-8.457-6.303l-5.032-16.843l-30.296,13.55
				c-2.554,1.149-5.503,1.018-7.945-0.353l-12.2-6.824l-19.88,7.398c-4.568,1.706-9.655-0.614-11.361-5.182
				c-1.706-4.568,0.614-9.655,5.182-11.361l23.702-8.828c2.427-0.905,5.128-0.698,7.389,0.565l11.917,6.665l35.452-15.846
				c2.32-1.036,4.973-1.022,7.282,0.037c2.309,1.06,4.049,3.063,4.776,5.497l4.061,13.612l21.301-17.858
				c3.653-3.062,9.077-2.671,12.253,0.883l13.197,14.707h11.847c4.875,0,8.828,3.952,8.828,8.828s-3.952,8.828-8.828,8.828h-15.793
				c-2.51,0-4.902-1.069-6.577-2.94l-10.108-11.29l-25.044,21.001C276.339,114.031,274.333,114.759,272.261,114.759z"/>
			<path style="fill:#2C2F38;" d="M272.261,203.034c-3.902-0.001-7.341-2.564-8.457-6.303l-5.032-16.843l-30.296,13.55
				c-2.556,1.138-5.499,1.007-7.945-0.353l-12.2-6.824l-19.88,7.398c-2.955,1.104-6.275,0.547-8.708-1.46
				c-2.433-2.007-3.611-5.16-3.09-8.271c0.522-3.111,2.663-5.708,5.618-6.811l23.702-8.828c2.428-0.896,5.125-0.69,7.389,0.565
				l11.917,6.665l35.452-15.89c2.32-1.036,4.973-1.022,7.282,0.037c2.309,1.06,4.049,3.063,4.776,5.497l4.061,13.612l21.301-17.858
				c3.653-3.062,9.077-2.671,12.253,0.883l13.197,14.751h11.847c4.875,0,8.828,3.952,8.828,8.828c0,4.875-3.952,8.828-8.828,8.828
				h-15.793c-2.51,0-4.902-1.069-6.577-2.94l-10.108-11.29l-25.044,21.001C276.339,202.307,274.333,203.035,272.261,203.034z"/>
			<path style="fill:#2C2F38;" d="M272.261,291.31c-3.902-0.001-7.341-2.564-8.457-6.303l-5.032-16.843l-30.296,13.55
				c-2.554,1.149-5.503,1.018-7.945-0.353l-12.2-6.824l-19.88,7.398c-4.568,1.706-9.655-0.614-11.361-5.182
				c-1.706-4.568,0.614-9.655,5.182-11.361l23.702-8.828c2.427-0.905,5.128-0.698,7.389,0.565l11.917,6.665l35.452-15.89
				c2.32-1.036,4.973-1.022,7.282,0.037c2.309,1.06,4.049,3.063,4.776,5.497l4.061,13.612l21.301-17.858
				c3.653-3.062,9.077-2.671,12.253,0.883l13.197,14.751h11.847c4.875,0,8.828,3.952,8.828,8.828s-3.952,8.828-8.828,8.828h-15.793
				c-2.51,0-4.902-1.069-6.577-2.94l-10.108-11.29l-25.044,21.001C276.339,290.583,274.333,291.311,272.261,291.31z"/>
			<path style="fill:#2C2F38;" d="M272.261,379.586c-3.902-0.001-7.341-2.564-8.457-6.303l-5.032-16.843l-30.296,13.55
				c-2.554,1.149-5.503,1.018-7.945-0.353l-12.2-6.824l-19.88,7.398c-4.568,1.706-9.655-0.614-11.361-5.182
				c-1.706-4.568,0.614-9.655,5.182-11.361l23.702-8.828c2.427-0.905,5.128-0.698,7.389,0.565l11.917,6.665l35.452-15.845
				c2.32-1.036,4.973-1.022,7.282,0.037c2.309,1.06,4.049,3.063,4.776,5.497l4.061,13.612l21.301-17.858
				c3.653-3.062,9.077-2.671,12.253,0.883l15.801,17.655c2.139,2.345,2.854,5.656,1.874,8.675s-3.504,5.278-6.612,5.92
				c-3.108,0.641-6.321-0.435-8.415-2.818l-10.108-11.29l-25.044,21.001C276.318,378.859,274.323,379.583,272.261,379.586z"/>
		</g>
		<circle style="fill:#F29C1F;" cx="35.311" cy="44.138" r="35.31"/>
		<g>
			<circle style="fill:#F0C419;" cx="30.897" cy="39.724" r="22.069"/>
			<circle style="fill:#F0C419;" cx="472.276" cy="39.724" r="22.069"/>
		</g>
	</g>
</g>
<g>
</g>
<g>
</g>
<g>
</g>
<g>
</g>
<g>
</g>
<g>
</g>
<g>
</g>
<g>
</g>
<g>
</g>
<g>
</g>
<g>
</g>
<g>
</g>
<g>
</g>
<g>
</g>
<g>
</g>
</svg>
